<svg xmlns="http://www.w3.org/2000/svg" width="33.74" height="33.74" viewBox="0 0 33.74 33.74">
  <path id="blog-icon" d="M146.87-71.26A16.761,16.761,0,0,1,134.941-76.2,16.759,16.759,0,0,1,130-88.13a16.76,16.76,0,0,1,4.941-11.929A16.76,16.76,0,0,1,146.87-105a16.759,16.759,0,0,1,11.929,4.941A16.761,16.761,0,0,1,163.74-88.13,16.759,16.759,0,0,1,158.8-76.2,16.76,16.76,0,0,1,146.87-71.26Zm-5.762-12.282v3.677h5.649l5.84-5.157V-92.8l2.91-2.451H144l-2.892,2.587v2.451h3.983v-.936l.613-.545H148.6v5.174l-3.5,2.978Z" transform="translate(-130 105)"/>
</svg>
