<svg xmlns="http://www.w3.org/2000/svg" width="33.74" height="33.74" viewBox="0 0 33.74 33.74">
  <path id="mail-icon" d="M16.87,0A16.87,16.87,0,1,0,33.74,16.87,16.87,16.87,0,0,0,16.87,0Zm9.856,17.719-.007,3.649L22.34,16.989,26.726,12.6Zm-6.4-.73-2.019,2.016a2.033,2.033,0,0,1-2.876,0l-8.4-8.4A1.186,1.186,0,0,1,8.2,9.626H25.539a1.186,1.186,0,0,1,1.168.981ZM7.014,21.365V12.6L11.4,16.989,8.839,19.551Zm.066,1.958L12.408,18l2.016,2.016a3.457,3.457,0,0,0,4.892,0L21.333,18l5.327,5.327a1.189,1.189,0,0,1-1.121.791H8.2A1.189,1.189,0,0,1,7.081,23.323Z"/>
</svg>
