<svg xmlns="http://www.w3.org/2000/svg" xmlns:xlink="http://www.w3.org/1999/xlink" width="159" height="160" viewBox="0 0 159 160">
  <defs>
    <clipPath id="clip-path">
      <rect id="長方形_7" data-name="長方形 7" width="65" height="65" transform="translate(0 -65)" fill="none"/>
    </clipPath>
  </defs>
  <g id="skill-design" transform="translate(-1002 -1005)">
    <g id="design-icon" transform="translate(1050 1118)">
      <g id="グループ_9" data-name="グループ 9" style="isolation: isolate">
        <g id="グループ_8" data-name="グループ 8">
          <g id="グループ_7" data-name="グループ 7" clip-path="url(#clip-path)">
            <path id="パス_20" data-name="パス 20" d="M47.861-49.766V-3.809L32.627-3.2,0-1.9V-47.861a1.885,1.885,0,0,1,1.9-1.9Z" fill="#00607e"/>
            <path id="パス_21" data-name="パス 21" d="M47.861-49.766V-3.809L32.627-3.2V-49.766Z" fill="#002b3c"/>
            <path id="パス_22" data-name="パス 22" d="M63.683-59.359l-10.3-4.954a1.871,1.871,0,0,0-1.456-.08,1.9,1.9,0,0,0-1.086.971L38.259-37.261,54.372-35.61l2.773-5.763L57-43.41l1.791-1.4,1.651-3.431-.139-2.036,1.79-1.4,2.476-5.147A1.9,1.9,0,0,0,63.683-59.359Z" fill="#ffe377"/>
            <path id="パス_23" data-name="パス 23" d="M55.233-54.973a1.91,1.91,0,0,0-2.542.891,1.9,1.9,0,0,0,.891,2.542l6.865,3.3L62.1-51.67Z" fill="#ff9000"/>
            <path id="パス_24" data-name="パス 24" d="M49.388-47.218a1.905,1.905,0,0,0,.891,2.543l6.865,3.3L58.8-44.806l-6.865-3.3A1.914,1.914,0,0,0,49.388-47.218Z" fill="#ff9000"/>
            <path id="パス_25" data-name="パス 25" d="M23.105-49.766v22.852H11.68V-49.766l3.809-3.809H19.3Z" fill="#74efff"/>
            <path id="パス_26" data-name="パス 26" d="M23.105-49.766v22.852H17.393v-26.66h1.9Z" fill="#00cded"/>
            <path id="パス_27" data-name="パス 27" d="M23.105-49.766v-1.9a1.723,1.723,0,0,0-.115-.61L19.182-63.705A1.852,1.852,0,0,0,17.393-65a1.852,1.852,0,0,0-1.79,1.295L11.794-52.279a1.722,1.722,0,0,0-.115.61v1.9Z" fill="#ffbcab"/>
            <path id="パス_28" data-name="パス 28" d="M23.105-49.766v-1.9a1.723,1.723,0,0,0-.115-.61L19.182-63.705A1.852,1.852,0,0,0,17.393-65v15.234Z" fill="#ff9467"/>
            <path id="パス_29" data-name="パス 29" d="M26.914-30.723H38.34V-53.574H26.914Z" fill="#ececf1"/>
            <path id="パス_30" data-name="パス 30" d="M32.627-30.723H38.34V-53.574H32.627Z" fill="#b9b9bf"/>
            <path id="パス_31" data-name="パス 31" d="M64.581-37.616A1.934,1.934,0,0,0,63.1-38.34H9.775a2.061,2.061,0,0,0-1.993,1.485L.038-2.323a2,2,0,0,0,.381,1.6A1.934,1.934,0,0,0,1.9,0H55.478a1.914,1.914,0,0,0,1.866-1.485l7.617-34.531A2,2,0,0,0,64.581-37.616Z" fill="#ffe377"/>
            <path id="パス_32" data-name="パス 32" d="M64.962-36.016,57.345-1.485A1.914,1.914,0,0,1,55.478,0H32.627V-38.34H63.1a1.934,1.934,0,0,1,1.485.724A2,2,0,0,1,64.962-36.016Z" fill="#ffb554"/>
            <path id="パス_33" data-name="パス 33" d="M47.861-19.043H32.627a1.885,1.885,0,0,0-1.9,1.9v7.617a1.886,1.886,0,0,0,1.9,1.9H47.861a1.886,1.886,0,0,0,1.9-1.9v-7.617A1.885,1.885,0,0,0,47.861-19.043Z" fill="#00607e"/>
            <path id="パス_34" data-name="パス 34" d="M34.036-64.353a1.8,1.8,0,0,0-1.409-.609,1.8,1.8,0,0,0-1.409.609C30.19-63.21,25.01-57.269,25.01-53.574a7.64,7.64,0,0,0,7.617,7.617,7.64,7.64,0,0,0,7.617-7.617C40.244-57.269,35.064-63.21,34.036-64.353Z" fill="#ff728b"/>
            <path id="パス_35" data-name="パス 35" d="M40.244-53.574a7.64,7.64,0,0,1-7.617,7.617v-19a1.8,1.8,0,0,1,1.409.609C35.064-63.21,40.244-57.269,40.244-53.574Z" fill="#ff3f61"/>
            <path id="パス_36" data-name="パス 36" d="M49.766-17.139v7.617a1.886,1.886,0,0,1-1.9,1.9H32.627V-19.043H47.861A1.885,1.885,0,0,1,49.766-17.139Z" fill="#002b3c"/>
          </g>
        </g>
      </g>
    </g>
    <g id="グループ_48" data-name="グループ 48">
      <path id="前面オブジェクトで型抜き_11" data-name="前面オブジェクトで型抜き 11" d="M210,68h0a80.61,80.61,0,0,1-16.122-1.625,79.6,79.6,0,0,1-15.017-4.662,79.979,79.979,0,0,1-13.589-7.375,80.631,80.631,0,0,1-11.84-9.769,80.629,80.629,0,0,1-9.769-11.84,80.047,80.047,0,0,1-7.376-13.589,79.6,79.6,0,0,1-4.662-15.016A80.61,80.61,0,0,1,130-12a80.61,80.61,0,0,1,1.625-16.123,79.613,79.613,0,0,1,4.662-15.017,80.048,80.048,0,0,1,7.376-13.589,80.572,80.572,0,0,1,9.769-11.84,80.518,80.518,0,0,1,11.84-9.769,79.985,79.985,0,0,1,13.589-7.376,79.594,79.594,0,0,1,15.017-4.661A80.545,80.545,0,0,1,210-92v14h-.009a65.564,65.564,0,0,0-25.681,5.186A65.952,65.952,0,0,0,173.1-66.728a66.507,66.507,0,0,0-9.768,8.059,66.571,66.571,0,0,0-8.059,9.768,66.081,66.081,0,0,0-6.085,11.211A65.588,65.588,0,0,0,144-12a65.579,65.579,0,0,0,5.187,25.69A66.013,66.013,0,0,0,155.272,24.9a66.52,66.52,0,0,0,8.059,9.768,66.52,66.52,0,0,0,9.768,8.06,66.08,66.08,0,0,0,11.211,6.085A65.586,65.586,0,0,0,210,54V68Z" transform="translate(872 1097)" fill="#f9f9fa" opacity="0.996"/>
      <path id="前面オブジェクトで型抜き_22" data-name="前面オブジェクトで型抜き 22" d="M80,0h0A80.61,80.61,0,0,0,63.877,1.625,79.585,79.585,0,0,0,35.272,13.663a80.228,80.228,0,0,0-28.985,35.2A79.6,79.6,0,0,0,1.625,63.877a80.774,80.774,0,0,0,0,32.245,79.58,79.58,0,0,0,12.037,28.606,80.248,80.248,0,0,0,35.2,28.984,79.594,79.594,0,0,0,15.016,4.661A80.545,80.545,0,0,0,80,160V146h-.009A65.69,65.69,0,0,1,43.1,134.728a66.18,66.18,0,0,1-23.912-29.038A65.916,65.916,0,0,1,25.272,43.1,66.187,66.187,0,0,1,54.31,19.187,65.585,65.585,0,0,1,80,14V0Z" transform="translate(1161 1165) rotate(180)" fill="#ffb554" opacity="0.996"/>
    </g>
  </g>
</svg>
