<svg xmlns="http://www.w3.org/2000/svg" width="160" height="160" viewBox="0 0 160 160">
  <g id="skill-javascript" transform="translate(-736 -1005)">
    <g id="グループ_47" data-name="グループ 47">
      <path id="前面オブジェクトで型抜き_9" data-name="前面オブジェクトで型抜き 9" d="M210,103a80.61,80.61,0,0,1-16.123-1.625,79.6,79.6,0,0,1-15.017-4.662,79.978,79.978,0,0,1-13.589-7.376,80.417,80.417,0,0,1-21.609-21.609,79.9,79.9,0,0,1,0-89.457,80.431,80.431,0,0,1,21.609-21.608,79.987,79.987,0,0,1,13.589-7.376,79.526,79.526,0,0,1,15.017-4.661A80.545,80.545,0,0,1,210-57v14h-.009a65.579,65.579,0,0,0-25.681,5.185A66.02,66.02,0,0,0,173.1-31.728,66.362,66.362,0,0,0,155.272-13.9a65.916,65.916,0,0,0,0,73.8A66.382,66.382,0,0,0,173.1,77.729a66.078,66.078,0,0,0,11.211,6.085,66.216,66.216,0,0,0,51.38,0A66.081,66.081,0,0,0,246.9,77.729,66.362,66.362,0,0,0,264.728,59.9,65.678,65.678,0,0,0,276,23h14a80.608,80.608,0,0,1-1.625,16.123,79.583,79.583,0,0,1-12.038,28.606,80.452,80.452,0,0,1-21.609,21.609,79.978,79.978,0,0,1-13.589,7.376,79.6,79.6,0,0,1-15.016,4.662A80.615,80.615,0,0,1,210,103Z" transform="translate(606 1062)" fill="#f9f9fa" opacity="0.996"/>
      <path id="前面オブジェクトで型抜き_25" data-name="前面オブジェクトで型抜き 25" d="M14,0H0A80.635,80.635,0,0,0,1.625,16.123,79.644,79.644,0,0,0,6.287,31.14a80.1,80.1,0,0,0,7.376,13.589,80.668,80.668,0,0,0,9.769,11.839,80.537,80.537,0,0,0,11.84,9.769,80.037,80.037,0,0,0,13.589,7.376,79.629,79.629,0,0,0,15.017,4.661A80.571,80.571,0,0,0,80,80V66h-.008a65.567,65.567,0,0,1-25.681-5.186A65.96,65.96,0,0,1,43.1,54.728a66.558,66.558,0,0,1-9.768-8.059,66.645,66.645,0,0,1-8.06-9.768A66.158,66.158,0,0,1,19.187,25.69,65.589,65.589,0,0,1,14,0Z" transform="translate(895 1085) rotate(180)" fill="#fed630" opacity="0.996"/>
    </g>
    <g id="icons8-javascript" transform="translate(777.979 1046.479)">
      <path id="パス_85" data-name="パス 85" d="M6,71.042V6H71.042V71.042Z" transform="translate(0 0)" fill="#ffd600"/>
      <path id="パス_86" data-name="パス 86" d="M41,41.778c1.25,2.031,2.609,3.977,5.487,3.977,2.417,0,3.686-1.2,3.686-2.864,0-1.989-1.312-2.7-3.971-3.854l-1.458-.622c-4.208-1.785-7.006-4.022-7.006-8.746,0-4.354,3.333-7.668,8.542-7.668,3.709,0,6.374,1.285,8.3,4.649l-4.542,2.9c-1-1.785-2.08-2.488-3.754-2.488a2.533,2.533,0,0,0-2.791,2.488c0,1.742,1.084,2.446,3.586,3.525l1.458.622c4.959,2.112,7.756,4.269,7.756,9.119,0,5.225-4.127,8.089-9.666,8.089a10.66,10.66,0,0,1-10.208-6.085Zm-20.933.148a4.934,4.934,0,0,0,4.3,2.9c1.912,0,3.012-.755,3.012-3.691V22H33.4V42.056c0,6.083-3.529,8.851-8.681,8.851a10.567,10.567,0,0,1-9.386-6.085Z" transform="translate(7.529 12.907)" fill="#000001"/>
    </g>
  </g>
</svg>
