<svg xmlns="http://www.w3.org/2000/svg" width="159" height="160" viewBox="0 0 159 160">
  <g id="skill-html" transform="translate(-204 -1005)">
    <g id="icons8-html-5" transform="translate(244.5 1043.677)">
      <path id="パス_12" data-name="パス 12" d="M72,5H7l5.735,65L39.5,77.647,66.265,70,72,5Z" transform="translate(0 0)" fill="#e65100"/>
      <path id="パス_13" data-name="パス 13" d="M24,8V69.511l20.447-6.17L49.011,8Z" transform="translate(16.965 2.477)" fill="#ff6d00"/>
      <path id="パス_14" data-name="パス 14" d="M24,36.685v-7.9H39.7l-1.278,22.7L24,56.62V48.33l7.485-2.763.548-8.882ZM40.248,20.9,40.8,13H24v7.9Z" transform="translate(16.043 6.605)" fill="#fff"/>
      <path id="パス_15" data-name="パス 15" d="M31.513,48.33v8.29L17.091,51.488l-.73-10.856h7.3l.365,4.934ZM22.568,20.9h8.945V13H14.9l1.278,23.685H31.513v-7.9h-8.4Z" transform="translate(7.452 6.605)" fill="#eee"/>
    </g>
    <g id="グループ_45" data-name="グループ 45">
      <path id="前面オブジェクトで型抜き_5" data-name="前面オブジェクトで型抜き 5" d="M210,68h0a80.61,80.61,0,0,1-16.122-1.625,79.6,79.6,0,0,1-15.017-4.662,79.979,79.979,0,0,1-13.589-7.375,80.631,80.631,0,0,1-11.84-9.769,80.629,80.629,0,0,1-9.769-11.84,80.047,80.047,0,0,1-7.376-13.589,79.6,79.6,0,0,1-4.662-15.016A80.61,80.61,0,0,1,130-12a80.61,80.61,0,0,1,1.625-16.123,79.613,79.613,0,0,1,4.662-15.017,80.048,80.048,0,0,1,7.376-13.589,80.572,80.572,0,0,1,9.769-11.84,80.518,80.518,0,0,1,11.84-9.769,79.985,79.985,0,0,1,13.589-7.376,79.594,79.594,0,0,1,15.017-4.661A80.545,80.545,0,0,1,210-92v14h-.009a65.564,65.564,0,0,0-25.681,5.186A65.952,65.952,0,0,0,173.1-66.728a66.507,66.507,0,0,0-9.768,8.059,66.571,66.571,0,0,0-8.059,9.768,66.081,66.081,0,0,0-6.085,11.211A65.588,65.588,0,0,0,144-12a65.579,65.579,0,0,0,5.187,25.69A66.013,66.013,0,0,0,155.272,24.9a66.52,66.52,0,0,0,8.059,9.768,66.52,66.52,0,0,0,9.768,8.06,66.08,66.08,0,0,0,11.211,6.085A65.586,65.586,0,0,0,210,54V68Z" transform="translate(74 1097)" fill="#f9f9fa" opacity="0.996"/>
      <path id="前面オブジェクトで型抜き_18" data-name="前面オブジェクトで型抜き 18" d="M80,0h0A80.61,80.61,0,0,0,63.877,1.625,79.585,79.585,0,0,0,35.272,13.663a80.228,80.228,0,0,0-28.985,35.2A79.6,79.6,0,0,0,1.625,63.877a80.774,80.774,0,0,0,0,32.245,79.58,79.58,0,0,0,12.037,28.606,80.248,80.248,0,0,0,35.2,28.984,79.594,79.594,0,0,0,15.017,4.661A80.545,80.545,0,0,0,80,160V146h-.009A65.69,65.69,0,0,1,43.1,134.728a66.18,66.18,0,0,1-23.912-29.038A65.916,65.916,0,0,1,25.272,43.1,66.187,66.187,0,0,1,54.311,19.187,65.586,65.586,0,0,1,80,14V0Z" transform="translate(363 1165) rotate(180)" fill="#ff6d00" opacity="0.996"/>
    </g>
  </g>
</svg>
