<svg xmlns="http://www.w3.org/2000/svg" xmlns:xlink="http://www.w3.org/1999/xlink" width="160" height="160" viewBox="0 0 160 160">
  <defs>
    <clipPath id="clip-path">
      <rect id="長方形_9" data-name="長方形 9" width="80" height="80" transform="translate(0 -80)" fill="none"/>
    </clipPath>
    <clipPath id="clip-path-2">
      <path id="パス_48" data-name="パス 48" d="M43.333-51.667H30A11.667,11.667,0,0,1,18.333-63.333,11.667,11.667,0,0,1,30-75H43.333Z" fill="none"/>
    </clipPath>
    <linearGradient id="linear-gradient" x1="0.107" y1="0.49" x2="0.427" y2="0.49" gradientUnits="objectBoundingBox">
      <stop offset="0" stop-color="#f44e59"/>
      <stop offset="0.1" stop-color="#f24a56"/>
      <stop offset="0.2" stop-color="#f14652"/>
      <stop offset="0.3" stop-color="#ef424f"/>
      <stop offset="0.4" stop-color="#ee3e4b"/>
      <stop offset="0.5" stop-color="#ed3a47"/>
      <stop offset="0.6" stop-color="#eb3442"/>
      <stop offset="0.7" stop-color="#e92f3d"/>
      <stop offset="0.8" stop-color="#e82a39"/>
      <stop offset="0.9" stop-color="#e62534"/>
      <stop offset="1" stop-color="#e4202f"/>
    </linearGradient>
    <clipPath id="clip-path-3">
      <path id="パス_50" data-name="パス 50" d="M41.667-28.333H30A11.667,11.667,0,0,1,18.333-40,11.667,11.667,0,0,1,30-51.667H41.667Z" fill="none"/>
    </clipPath>
    <linearGradient id="linear-gradient-2" x1="0.31" y1="0.576" x2="0.628" y2="0.576" gradientUnits="objectBoundingBox">
      <stop offset="0" stop-color="#ae4bd5"/>
      <stop offset="0.1" stop-color="#ab49d2"/>
      <stop offset="0.2" stop-color="#a846d0"/>
      <stop offset="0.3" stop-color="#a543ce"/>
      <stop offset="0.4" stop-color="#a341cc"/>
      <stop offset="0.5" stop-color="#a03ec9"/>
      <stop offset="0.6" stop-color="#9d3bc7"/>
      <stop offset="0.7" stop-color="#9b39c5"/>
      <stop offset="0.8" stop-color="#9836c3"/>
      <stop offset="0.9" stop-color="#9533c1"/>
      <stop offset="1" stop-color="#9331be"/>
    </linearGradient>
    <clipPath id="clip-path-4">
      <path id="パス_52" data-name="パス 52" d="M30-5A11.667,11.667,0,0,1,18.333-16.667,11.667,11.667,0,0,1,30-28.333H41.667v11.667A11.667,11.667,0,0,1,30-5Z" fill="none"/>
    </clipPath>
    <linearGradient id="linear-gradient-3" x1="0.485" y1="0.653" x2="0.818" y2="0.653" gradientUnits="objectBoundingBox">
      <stop offset="0" stop-color="#33c381"/>
      <stop offset="0.1" stop-color="#31c07e"/>
      <stop offset="0.2" stop-color="#2fbd7b"/>
      <stop offset="0.3" stop-color="#2dba78"/>
      <stop offset="0.4" stop-color="#2bb676"/>
      <stop offset="0.5" stop-color="#29b373"/>
      <stop offset="0.6" stop-color="#28b070"/>
      <stop offset="0.7" stop-color="#26ac6e"/>
      <stop offset="0.8" stop-color="#24a96b"/>
      <stop offset="0.9" stop-color="#22a668"/>
      <stop offset="1" stop-color="#20a266"/>
    </linearGradient>
    <clipPath id="clip-path-5">
      <path id="パス_54" data-name="パス 54" d="M53.333-51.667H41.667V-75H53.333A11.667,11.667,0,0,1,65-63.333,11.667,11.667,0,0,1,53.333-51.667Z" fill="none"/>
    </clipPath>
    <linearGradient id="linear-gradient-4" x1="0.161" y1="0.316" x2="0.475" y2="0.316" gradientUnits="objectBoundingBox">
      <stop offset="0" stop-color="#f09ca2"/>
      <stop offset="0.1" stop-color="#ef969d"/>
      <stop offset="0.2" stop-color="#ef9198"/>
      <stop offset="0.3" stop-color="#ee8c93"/>
      <stop offset="0.4" stop-color="#ee868f"/>
      <stop offset="0.5" stop-color="#ed818a"/>
      <stop offset="0.6" stop-color="#ed7c85"/>
      <stop offset="0.7" stop-color="#ec7681"/>
      <stop offset="0.8" stop-color="#ec717c"/>
      <stop offset="0.9" stop-color="#eb6c77"/>
      <stop offset="1" stop-color="#eb6673"/>
    </linearGradient>
    <clipPath id="clip-path-6">
      <path id="パス_56" data-name="パス 56" d="M53.333-51.667A11.672,11.672,0,0,1,65-40,11.672,11.672,0,0,1,53.333-28.333,11.672,11.672,0,0,1,41.667-40,11.672,11.672,0,0,1,53.333-51.667Z" fill="none" clip-rule="evenodd"/>
    </clipPath>
    <linearGradient id="linear-gradient-5" x1="0.388" y1="0.378" x2="0.68" y2="0.378" gradientUnits="objectBoundingBox">
      <stop offset="0" stop-color="#32bdef"/>
      <stop offset="0.1" stop-color="#30baed"/>
      <stop offset="0.2" stop-color="#2eb7ec"/>
      <stop offset="0.3" stop-color="#2cb4eb"/>
      <stop offset="0.4" stop-color="#29b2ea"/>
      <stop offset="0.5" stop-color="#27afe9"/>
      <stop offset="0.6" stop-color="#25ace8"/>
      <stop offset="0.7" stop-color="#23aae7"/>
      <stop offset="0.8" stop-color="#21a7e6"/>
      <stop offset="0.9" stop-color="#1fa4e5"/>
      <stop offset="1" stop-color="#1da2e3"/>
    </linearGradient>
  </defs>
  <g id="skill-figma" transform="translate(-468 -1454)">
    <g id="figma-icon" transform="translate(424 1665)">
      <g id="グループ_43" data-name="グループ 43" transform="translate(84 -171)">
        <g id="グループ_42" data-name="グループ 42" transform="translate(0 80)">
          <g id="グループ_41" data-name="グループ 41" style="isolation: isolate">
            <g id="グループ_40" data-name="グループ 40">
              <g id="グループ_39" data-name="グループ 39" clip-path="url(#clip-path)">
                <g id="グループ_30" data-name="グループ 30" clip-path="url(#clip-path-2)">
                  <g id="グループ_29" data-name="グループ 29" transform="translate(27.182 -78.165) rotate(69.998)">
                    <path id="パス_47" data-name="パス 47" d="M-11.022,24.915,16.342-50.26,91.517-22.9,64.153,52.278Z" fill="url(#linear-gradient)"/>
                  </g>
                </g>
                <g id="グループ_32" data-name="グループ 32" clip-path="url(#clip-path-3)">
                  <g id="グループ_31" data-name="グループ 31" transform="translate(26.067 -55.607) rotate(69.998)">
                    <path id="パス_49" data-name="パス 49" d="M-31.838,16.151-4.474-59.024,70.7-31.66,43.337,43.515Z" fill="url(#linear-gradient-2)"/>
                  </g>
                </g>
                <g id="グループ_34" data-name="グループ 34" clip-path="url(#clip-path-4)">
                  <g id="グループ_33" data-name="グループ 33" transform="matrix(0.342, 0.94, -0.94, 0.342, 24.683, -36.072)">
                    <path id="パス_51" data-name="パス 51" d="M-49.722,8.168l27.365-75.174L52.817-39.641,25.452,35.533Z" fill="url(#linear-gradient-3)"/>
                  </g>
                </g>
                <g id="グループ_36" data-name="グループ 36" clip-path="url(#clip-path-5)">
                  <g id="グループ_35" data-name="グループ 35" transform="matrix(0.342, 0.94, -0.94, 0.342, 45.83, -79.147)">
                    <path id="パス_53" data-name="パス 53" d="M-16.477,42.774,10.886-32.4,86.06-5.038,58.7,70.137Z" fill="url(#linear-gradient-4)"/>
                  </g>
                </g>
                <g id="グループ_38" data-name="グループ 38" clip-path="url(#clip-path-6)">
                  <g id="グループ_37" data-name="グループ 37" transform="translate(47.857 -55.047) rotate(70)">
                    <path id="パス_55" data-name="パス 55" d="M-39.816,36.436l27.361-75.176L62.72-11.378,35.359,63.8Z" fill="url(#linear-gradient-5)"/>
                  </g>
                </g>
              </g>
            </g>
          </g>
        </g>
      </g>
    </g>
    <g id="グループ_49" data-name="グループ 49">
      <path id="前面オブジェクトで型抜き_13" data-name="前面オブジェクトで型抜き 13" d="M210,103a80.61,80.61,0,0,1-16.123-1.625,79.6,79.6,0,0,1-15.017-4.662,79.978,79.978,0,0,1-13.589-7.376,80.417,80.417,0,0,1-21.609-21.609,79.9,79.9,0,0,1,0-89.457,80.431,80.431,0,0,1,21.609-21.608,79.987,79.987,0,0,1,13.589-7.376,79.526,79.526,0,0,1,15.017-4.661A80.545,80.545,0,0,1,210-57v14h-.009a65.579,65.579,0,0,0-25.681,5.185A66.02,66.02,0,0,0,173.1-31.728,66.362,66.362,0,0,0,155.272-13.9a65.916,65.916,0,0,0,0,73.8A66.382,66.382,0,0,0,173.1,77.729a66.078,66.078,0,0,0,11.211,6.085,66.216,66.216,0,0,0,51.38,0A66.081,66.081,0,0,0,246.9,77.729,66.362,66.362,0,0,0,264.728,59.9,65.678,65.678,0,0,0,276,23h14a80.608,80.608,0,0,1-1.625,16.123,79.583,79.583,0,0,1-12.038,28.606,80.452,80.452,0,0,1-21.609,21.609,79.978,79.978,0,0,1-13.589,7.376,79.6,79.6,0,0,1-15.016,4.662A80.615,80.615,0,0,1,210,103Z" transform="translate(338 1511)" fill="#f9f9fa" opacity="0.996"/>
      <path id="前面オブジェクトで型抜き_30" data-name="前面オブジェクトで型抜き 30" d="M14,0H0A80.635,80.635,0,0,0,1.625,16.123,79.644,79.644,0,0,0,6.287,31.14a80.1,80.1,0,0,0,7.376,13.589,80.668,80.668,0,0,0,9.769,11.839,80.537,80.537,0,0,0,11.84,9.769,80.037,80.037,0,0,0,13.589,7.376,79.629,79.629,0,0,0,15.017,4.661A80.571,80.571,0,0,0,80,80V66h-.008a65.567,65.567,0,0,1-25.681-5.186A65.96,65.96,0,0,1,43.1,54.728a66.558,66.558,0,0,1-9.768-8.059,66.645,66.645,0,0,1-8.06-9.768A66.158,66.158,0,0,1,19.187,25.69,65.589,65.589,0,0,1,14,0Z" transform="translate(628 1534) rotate(180)" fill="#2bb3eb" opacity="0.996"/>
    </g>
  </g>
</svg>
