<svg xmlns="http://www.w3.org/2000/svg" width="160" height="160" viewBox="0 0 160 160">
  <g id="skill-xd" transform="translate(-739 -1454)">
    <g id="xd-icon" transform="translate(781 1496)">
      <path id="パス_2" data-name="パス 2" d="M6,13.222A7.223,7.223,0,0,1,13.222,6H63.778A7.223,7.223,0,0,1,71,13.222V63.778A7.223,7.223,0,0,1,63.778,71H13.222A7.223,7.223,0,0,1,6,63.778Z" transform="translate(0 0)" fill="#ff41c8"/>
      <path id="パス_3" data-name="パス 3" d="M9,9V68H68V9ZM28.85,33.967l3.764-9.6h6.472L32.517,38.231l6.722,14.1H32.69L28.85,42.551l-3.821,9.776H18.479l6.722-14.1L18.613,24.364h6.472ZM40.6,41.3q0-5.109,1.729-7.625a5.72,5.72,0,0,1,5.033-2.515,4.854,4.854,0,0,1,3.994,2.075V22.83h5.473v29.5H51.895l-.25-2.112a5,5,0,0,1-4.3,2.5,5.675,5.675,0,0,1-4.984-2.5q-1.72-2.5-1.758-7.336V41.3Zm5.456,1.363a9.9,9.9,0,0,0,.653,4.293,2.3,2.3,0,0,0,2.209,1.219,2.65,2.65,0,0,0,2.439-1.44V37.253a2.589,2.589,0,0,0-2.419-1.536,2.337,2.337,0,0,0-2.189,1.209,9.43,9.43,0,0,0-.692,4.3Z" transform="translate(0 0)" fill="#16020b"/>
    </g>
    <g id="グループ_50" data-name="グループ 50">
      <path id="前面オブジェクトで型抜き_16" data-name="前面オブジェクトで型抜き 16" d="M154-25H140a80.635,80.635,0,0,1,1.625-16.123,79.644,79.644,0,0,1,4.662-15.017,80.105,80.105,0,0,1,7.376-13.589,80.669,80.669,0,0,1,9.769-11.84,80.538,80.538,0,0,1,11.84-9.769,80.037,80.037,0,0,1,13.589-7.376,79.63,79.63,0,0,1,15.017-4.661A80.57,80.57,0,0,1,220-105v14h-.008a65.567,65.567,0,0,0-25.681,5.186A65.961,65.961,0,0,0,183.1-79.728a66.558,66.558,0,0,0-9.768,8.059,66.644,66.644,0,0,0-8.06,9.768,66.157,66.157,0,0,0-6.085,11.211A65.589,65.589,0,0,0,154-25Z" transform="translate(599 1559)" fill="#f9f9fa" opacity="0.996"/>
      <path id="前面オブジェクトで型抜き_27" data-name="前面オブジェクトで型抜き 27" d="M80,0A80.61,80.61,0,0,0,63.877,1.625,79.586,79.586,0,0,0,35.272,13.663a80.227,80.227,0,0,0-28.984,35.2A79.594,79.594,0,0,0,1.625,63.878a80.779,80.779,0,0,0,0,32.246,79.586,79.586,0,0,0,12.037,28.606,80.247,80.247,0,0,0,35.2,28.985,79.527,79.527,0,0,0,15.016,4.661A80.545,80.545,0,0,0,80,160V146h-.009A65.669,65.669,0,0,1,43.1,134.728a66.18,66.18,0,0,1-23.912-29.038A65.916,65.916,0,0,1,25.272,43.1,66.187,66.187,0,0,1,54.311,19.187,65.916,65.916,0,0,1,116.9,25.272a66.207,66.207,0,0,1,23.912,29.039A65.585,65.585,0,0,1,146,80h14a80.608,80.608,0,0,0-1.625-16.123,79.583,79.583,0,0,0-12.038-28.606,80.228,80.228,0,0,0-35.2-28.985A79.6,79.6,0,0,0,96.124,1.625,80.615,80.615,0,0,0,80,0Z" transform="translate(899 1614) rotate(180)" fill="#fd41c8" opacity="0.996"/>
    </g>
  </g>
</svg>
