<svg xmlns="http://www.w3.org/2000/svg" width="160" height="160" viewBox="0 0 160 160">
  <g id="skill-seo" transform="translate(-1001 -1438)">
    <g id="グループ_50" data-name="グループ 50" transform="translate(262 -16)">
      <path id="前面オブジェクトで型抜き_16" data-name="前面オブジェクトで型抜き 16" d="M14,0H0A80.635,80.635,0,0,0,1.625,16.123,79.644,79.644,0,0,0,6.287,31.14a80.1,80.1,0,0,0,7.376,13.589,80.668,80.668,0,0,0,9.769,11.839,80.537,80.537,0,0,0,11.84,9.769,80.037,80.037,0,0,0,13.589,7.376,79.629,79.629,0,0,0,15.017,4.661A80.571,80.571,0,0,0,80,80V66h-.008a65.567,65.567,0,0,1-25.681-5.186A65.96,65.96,0,0,1,43.1,54.728a66.558,66.558,0,0,1-9.768-8.059,66.645,66.645,0,0,1-8.06-9.768A66.158,66.158,0,0,1,19.187,25.69,65.589,65.589,0,0,1,14,0Z" transform="translate(899 1534) rotate(180)" fill="#f24976" opacity="0.996"/>
      <path id="前面オブジェクトで型抜き_27" data-name="前面オブジェクトで型抜き 27" d="M80,160a80.609,80.609,0,0,1-16.123-1.625,79.586,79.586,0,0,1-28.606-12.037,80.228,80.228,0,0,1-28.985-35.2A79.6,79.6,0,0,1,1.625,96.123a80.778,80.778,0,0,1,0-32.246A79.586,79.586,0,0,1,13.663,35.271a80.247,80.247,0,0,1,35.2-28.985A79.526,79.526,0,0,1,63.877,1.625,80.545,80.545,0,0,1,80,0V14h-.009A65.69,65.69,0,0,0,43.1,25.272,66.18,66.18,0,0,0,19.187,54.31,65.916,65.916,0,0,0,25.272,116.9,66.187,66.187,0,0,0,54.31,140.813a65.916,65.916,0,0,0,62.591-6.085,66.207,66.207,0,0,0,23.912-29.039A65.586,65.586,0,0,0,146,80h14a80.542,80.542,0,0,1-1.625,16.123,79.563,79.563,0,0,1-12.037,28.606,80.227,80.227,0,0,1-35.2,28.984,79.593,79.593,0,0,1-15.017,4.662A80.614,80.614,0,0,1,80,160Z" transform="translate(739 1454)" fill="#f9f9fa" opacity="0.996"/>
    </g>
    <g id="seo-icon" transform="translate(1049 1486)">
      <circle id="楕円形_37" data-name="楕円形 37" cx="31" cy="31" r="31" transform="translate(3 3)" fill="#f24976"/>
      <path id="パス_60" data-name="パス 60" d="M30.491,77.47a12.658,12.658,0,0,1,15.377-1.948V53.763H0V93.749A1.265,1.265,0,0,0,1.262,95.01h28.9A12.659,12.659,0,0,1,30.491,77.47Z" transform="translate(0 -46.98)" fill="#eef6ff"/>
      <path id="パス_61" data-name="パス 61" d="M2.862,93.749V53.763H0V93.749A1.265,1.265,0,0,0,1.262,95.01H4.123A1.265,1.265,0,0,1,2.862,93.749Z" transform="translate(0 -46.98)" fill="#c3ddf4"/>
      <path id="パス_62" data-name="パス 62" d="M45.147,0H.721A.723.723,0,0,0,0,.721v6.42H45.868V.721A.723.723,0,0,0,45.147,0Z" fill="#293d7c"/>
      <path id="パス_63" data-name="パス 63" d="M3.583,0H.721A.723.723,0,0,0,0,.721v6.42H2.862V.721A.723.723,0,0,1,3.583,0Z" fill="#1a2b63"/>
      <path id="パス_64" data-name="パス 64" d="M52.139,104.411a.633.633,0,0,1-.631.631H37.447a.633.633,0,0,1-.631-.631V94.327a.633.633,0,0,1,.631-.631H51.508a.633.633,0,0,1,.631.631v10.084Z" transform="translate(-32.171 -81.874)" fill="#69cdff"/>
      <path id="パス_65" data-name="パス 65" d="M39.678,104.411V94.327a.633.633,0,0,1,.631-.631H37.447a.633.633,0,0,0-.631.631v10.084a.633.633,0,0,0,.631.631h2.862A.633.633,0,0,1,39.678,104.411Z" transform="translate(-32.171 -81.874)" fill="#52bbef"/>
      <path id="パス_66" data-name="パス 66" d="M59.569,281.788H37.447a.633.633,0,0,0-.631.631v6.032a.633.633,0,0,0,.631.631H59.432A12.732,12.732,0,0,1,59.569,281.788Z" transform="translate(-32.171 -246.234)" fill="#ff9518"/>
      <path id="パス_67" data-name="パス 67" d="M39.678,288.451v-6.032a.633.633,0,0,1,.631-.631H37.447a.633.633,0,0,0-.631.631v6.032a.633.633,0,0,0,.631.631h2.862A.633.633,0,0,1,39.678,288.451Z" transform="translate(-32.171 -246.234)" fill="#ef8318"/>
      <path id="パス_68" data-name="パス 68" d="M185.43,281.788h-4.58v7.294h4.443A12.732,12.732,0,0,1,185.43,281.788Z" transform="translate(-158.032 -246.234)" fill="#ffd00d"/>
      <g id="グループ_61" data-name="グループ 61" transform="translate(3.699 10.876)">
        <path id="パス_69" data-name="パス 69" d="M207.079,88.089H191.611a.946.946,0,1,1,0-1.893h15.467a.946.946,0,0,1,0,1.893Z" transform="translate(-170.307 -86.196)" fill="#91e0e8"/>
        <path id="パス_70" data-name="パス 70" d="M207.079,118.062H191.611a.946.946,0,1,1,0-1.893h15.467a.946.946,0,0,1,0,1.893Z" transform="translate(-170.307 -112.387)" fill="#91e0e8"/>
        <path id="パス_71" data-name="パス 71" d="M207.079,148.035H191.611a.946.946,0,0,1,0-1.893h15.467a.946.946,0,0,1,0,1.893Z" transform="translate(-170.307 -138.578)" fill="#91e0e8"/>
        <path id="パス_72" data-name="パス 72" d="M207.079,178.008H191.611a.946.946,0,1,1,0-1.893h15.467a.946.946,0,0,1,0,1.893Z" transform="translate(-170.307 -164.77)" fill="#91e0e8"/>
        <path id="パス_73" data-name="パス 73" d="M63.4,213.148H30.262a.946.946,0,0,0,0,1.893H58.219A12.509,12.509,0,0,1,63.4,213.148Z" transform="translate(-29.316 -197.13)" fill="#91e0e8"/>
        <path id="パス_74" data-name="パス 74" d="M55.862,243.662h-25.6a.946.946,0,1,0,0,1.893H54.385A12.618,12.618,0,0,1,55.862,243.662Z" transform="translate(-29.316 -223.794)" fill="#91e0e8"/>
      </g>
      <path id="パス_75" data-name="パス 75" d="M28.341,21.5a.946.946,0,1,1,.669-.276A.957.957,0,0,1,28.341,21.5Z" transform="translate(-23.938 -17.136)" fill="#e26693"/>
      <path id="パス_76" data-name="パス 76" d="M52.936,21.5a.946.946,0,1,1,.67-.278A.95.95,0,0,1,52.936,21.5Z" transform="translate(-45.43 -17.136)" fill="#ffaf10"/>
      <path id="パス_77" data-name="パス 77" d="M77.541,21.5a.946.946,0,1,1,.669-.276A.951.951,0,0,1,77.541,21.5Z" transform="translate(-66.931 -17.136)" fill="#37c47a"/>
      <path id="パス_78" data-name="パス 78" d="M391.806,389.207l-2.593,2.594,5.1,5.1a31.11,31.11,0,0,0,2.594-2.594Z" transform="translate(-340.105 -340.099)" fill="#445ea0"/>
      <path id="パス_79" data-name="パス 79" d="M367.147,361.926,365,359.777a12.717,12.717,0,0,1-5.183,5.191l2.145,2.145a.633.633,0,0,0,.892,0l4.295-4.295A.633.633,0,0,0,367.147,361.926Z" transform="translate(-314.416 -314.383)" fill="#293d7c"/>
      <path id="パス_80" data-name="パス 80" d="M363.431,393.549l-1.835-1.835a12.61,12.61,0,0,1-1.783,1.161l2.145,2.145a.633.633,0,0,0,.892,0l1.472-1.472A.632.632,0,0,1,363.431,393.549Z" transform="translate(-314.415 -342.29)" fill="#1a2b63"/>
      <path id="パス_81" data-name="パス 81" d="M232.324,214.081a12.9,12.9,0,1,1-18.238,0A12.9,12.9,0,0,1,232.324,214.081Z" transform="translate(-183.773 -183.769)" fill="#445ea0"/>
      <path id="パス_82" data-name="パス 82" d="M256.291,256.287a9.042,9.042,0,1,1,0-12.788A9.042,9.042,0,0,1,256.291,256.287Z" transform="translate(-210.466 -210.462)" fill="#69cdff"/>
      <path id="パス_83" data-name="パス 83" d="M256.291,268.561a9.1,9.1,0,0,0,.876-1.016A9.043,9.043,0,0,1,244.52,254.9a9.042,9.042,0,1,0,11.771,13.664Z" transform="translate(-210.466 -222.736)" fill="#52bbef"/>
      <path id="パス_84" data-name="パス 84" d="M146.434,0H115.912V7.141h31.243V.721A.723.723,0,0,0,146.434,0Z" transform="translate(-101.287)" fill="#445ea0"/>
      <g id="グループ_62" data-name="グループ 62" transform="translate(39.471 31.863)">
        <circle id="楕円形_38" data-name="楕円形 38" cx="1.514" cy="1.514" r="1.514" fill="#d9eafc"/>
        <circle id="楕円形_39" data-name="楕円形 39" cx="1.072" cy="1.072" r="1.072" transform="translate(3.622 2.015)" fill="#d9eafc"/>
      </g>
    </g>
  </g>
</svg>
