<svg xmlns="http://www.w3.org/2000/svg" width="160" height="160" viewBox="0 0 160 160">
  <g id="skill-css" transform="translate(-469 -1005)">
    <g id="css-icon" transform="translate(-85.593 -424.928)">
      <path id="パス_4" data-name="パス 4" d="M72.186,5H7l5.752,65.186,26.841,7.669,26.841-7.669L72.186,5Z" transform="translate(596 1469)" fill="#0277bd"/>
      <path id="パス_5" data-name="パス 5" d="M24,8V69.16l21.473-6.135L50.266,8Z" transform="translate(611.593 1471.752)" fill="#039be5"/>
      <path id="パス_6" data-name="パス 6" d="M41.447,13H24v7.669h9.394l-.575,7.669H24v7.669h8.436l-.575,8.628L24,47.319v8.052l15.146-4.985,1.342-22.048h0Z" transform="translate(611.593 1476.338)" fill="#fff"/>
      <path id="パス_7" data-name="パス 7" d="M32.439,13v7.669H15.375L14.8,13ZM23.619,28.338,24,36.007h8.436V28.338Zm.767,11.5H16.717l.575,10.545,15.146,4.985V47.319l-7.861-2.684Z" transform="translate(603.154 1476.338)" fill="#eee"/>
    </g>
    <g id="グループ_46" data-name="グループ 46">
      <path id="前面オブジェクトで型抜き_7" data-name="前面オブジェクトで型抜き 7" d="M210,68h0a80.61,80.61,0,0,1-16.122-1.625,79.6,79.6,0,0,1-15.017-4.662,79.979,79.979,0,0,1-13.589-7.375,80.631,80.631,0,0,1-11.84-9.769,80.629,80.629,0,0,1-9.769-11.84,80.047,80.047,0,0,1-7.376-13.589,79.6,79.6,0,0,1-4.662-15.016A80.61,80.61,0,0,1,130-12a80.61,80.61,0,0,1,1.625-16.123,79.613,79.613,0,0,1,4.662-15.017,80.048,80.048,0,0,1,7.376-13.589,80.572,80.572,0,0,1,9.769-11.84,80.518,80.518,0,0,1,11.84-9.769,79.985,79.985,0,0,1,13.589-7.376,79.594,79.594,0,0,1,15.017-4.661A80.545,80.545,0,0,1,210-92v14h-.009a65.564,65.564,0,0,0-25.681,5.186A65.952,65.952,0,0,0,173.1-66.728a66.507,66.507,0,0,0-9.768,8.059,66.571,66.571,0,0,0-8.059,9.768,66.081,66.081,0,0,0-6.085,11.211A65.588,65.588,0,0,0,144-12a65.579,65.579,0,0,0,5.187,25.69A66.013,66.013,0,0,0,155.272,24.9a66.52,66.52,0,0,0,8.059,9.768,66.52,66.52,0,0,0,9.768,8.06,66.08,66.08,0,0,0,11.211,6.085A65.586,65.586,0,0,0,210,54V68Z" transform="translate(339 1097)" fill="#f9f9fa" opacity="0.996"/>
      <path id="前面オブジェクトで型抜き_20" data-name="前面オブジェクトで型抜き 20" d="M80,0h0A80.61,80.61,0,0,0,63.877,1.625,79.585,79.585,0,0,0,35.272,13.663a80.228,80.228,0,0,0-28.985,35.2A79.6,79.6,0,0,0,1.625,63.877a80.774,80.774,0,0,0,0,32.245,79.58,79.58,0,0,0,12.037,28.606,80.248,80.248,0,0,0,35.2,28.984,79.594,79.594,0,0,0,15.016,4.661A80.545,80.545,0,0,0,80,160V146h-.009A65.69,65.69,0,0,1,43.1,134.728a66.18,66.18,0,0,1-23.912-29.038A65.916,65.916,0,0,1,25.272,43.1,66.187,66.187,0,0,1,54.31,19.187,65.585,65.585,0,0,1,80,14V0Z" transform="translate(629 1165) rotate(180)" fill="#039be5" opacity="0.996"/>
    </g>
  </g>
</svg>
