<svg xmlns="http://www.w3.org/2000/svg" width="607.183" height="184.489" viewBox="0 0 607.183 184.489">
  <path id="top-word" d="M24.087,0,1.864-76.364h20.4L33.782-26.325h.634L47.578-76.364h16.63L77.37-26.213H78L89.563-76.364h20.359L87.736,0H69.95L56.191-46.31h-.6L41.836,0Zm87.7,0V-76.364h53.246v14.989H130.248v15.661h32.067v15.027H130.248v15.7h34.789V0Zm59.03,0V-76.364h31.843a37.377,37.377,0,0,1,14.374,2.424,18.92,18.92,0,0,1,8.725,6.786,17.708,17.708,0,0,1,2.927,10.1,16.209,16.209,0,0,1-1.827,7.774,16.029,16.029,0,0,1-5.034,5.649,20.112,20.112,0,0,1-7.42,3.132v.746a18.649,18.649,0,0,1,8.557,2.5,17.314,17.314,0,0,1,6.32,6.32,18.484,18.484,0,0,1,2.386,9.564,19.733,19.733,0,0,1-3.132,10.981,21.17,21.17,0,0,1-9.061,7.607A33.743,33.743,0,0,1,205.087,0Zm18.457-14.877h11.41q6,0,8.856-2.275a7.652,7.652,0,0,0,2.852-6.339,9.2,9.2,0,0,0-1.38-5.09A9.038,9.038,0,0,0,207.1-31.9a14.368,14.368,0,0,0-6.078-1.175H189.277Zm0-30.091h10.217a13.519,13.519,0,0,0,5.369-1.007,8.363,8.363,0,0,0,3.673-2.908,7.826,7.826,0,0,0,1.324-4.586,7.345,7.345,0,0,0-2.722-6.04,11.35,11.35,0,0,0-7.346-2.2H189.277ZM279.819,0H251.593V-76.364h28.189q11.671,0,20.116,4.568A31.515,31.515,0,0,1,312.93-58.671q4.586,8.557,4.586,20.452,0,11.932-4.568,20.508A31.345,31.345,0,0,1,299.917-4.568Q291.453,0,279.819,0ZM270.05-15.735h9.061a24.556,24.556,0,0,0,10.869-2.181,14.305,14.305,0,0,0,6.749-7.122q2.293-4.941,2.293-13.181T296.71-51.363a14.375,14.375,0,0,0-6.8-7.085,25.184,25.184,0,0,0-11.056-2.181h-8.8ZM322.48,0V-76.364h53.246v14.989H340.937v15.661H373v15.027H340.937v15.7h34.789V0ZM422.786-53.469a8.735,8.735,0,0,0-3.3-6.395q-2.927-2.293-8.334-2.293a16.514,16.514,0,0,0-5.966.932,7.832,7.832,0,0,0-3.58,2.554,6.3,6.3,0,0,0-1.23,3.71,5.386,5.386,0,0,0,.69,3.02,7.124,7.124,0,0,0,2.237,2.293,16.106,16.106,0,0,0,3.561,1.734,37.187,37.187,0,0,0,4.7,1.305l6.563,1.491a46.613,46.613,0,0,1,10.012,3.281,27.387,27.387,0,0,1,7.308,4.885,19.015,19.015,0,0,1,4.493,6.525,21.924,21.924,0,0,1,1.566,8.278A21.348,21.348,0,0,1,437.85-9.732,22.706,22.706,0,0,1,427.466-1.79,43.185,43.185,0,0,1,411.153.969a44.509,44.509,0,0,1-16.7-2.871,23.614,23.614,0,0,1-11.074-8.725q-3.952-5.854-4.064-14.8h17.674a11.594,11.594,0,0,0,1.976,6.152,10.825,10.825,0,0,0,4.829,3.729,18.635,18.635,0,0,0,7.14,1.268,17.815,17.815,0,0,0,6.357-1.007,9.211,9.211,0,0,0,4.046-2.8,6.6,6.6,0,0,0,1.454-4.1,5.727,5.727,0,0,0-1.342-3.71,10.446,10.446,0,0,0-4.008-2.685,43.429,43.429,0,0,0-6.879-2.107l-7.979-1.864q-9.918-2.274-15.623-7.364t-5.668-13.778a20.5,20.5,0,0,1,3.8-12.417,25.27,25.27,0,0,1,10.627-8.315,38.1,38.1,0,0,1,15.474-2.983,36.692,36.692,0,0,1,15.418,3A23.833,23.833,0,0,1,436.769-66a22.441,22.441,0,0,1,3.691,12.528Zm40.759-22.894V0H445.088V-76.364Zm55.9,24.945a13.643,13.643,0,0,0-1.864-4.157,12.043,12.043,0,0,0-3.02-3.076,13.262,13.262,0,0,0-4.1-1.92,18.624,18.624,0,0,0-5.071-.653,16.962,16.962,0,0,0-9.6,2.685,17.206,17.206,0,0,0-6.246,7.812,31.484,31.484,0,0,0-2.2,12.435,33.009,33.009,0,0,0,2.125,12.528,17.008,17.008,0,0,0,6.152,7.9,17.035,17.035,0,0,0,9.769,2.722A20.076,20.076,0,0,0,513.98-16.8a11.984,11.984,0,0,0,5.351-4.717,13.765,13.765,0,0,0,1.827-7.2l3.43.41H506.019V-41.761h32.924v10.1q0,10.254-4.344,17.562A29.168,29.168,0,0,1,522.668-2.871a37.481,37.481,0,0,1-17.432,3.915,37.992,37.992,0,0,1-19.2-4.735,32.786,32.786,0,0,1-12.9-13.517q-4.624-8.781-4.624-20.862a46.359,46.359,0,0,1,2.8-16.686,35.292,35.292,0,0,1,7.812-12.361A33.451,33.451,0,0,1,490.75-74.8a38.525,38.525,0,0,1,14.262-2.61,38.973,38.973,0,0,1,12.361,1.9,33.249,33.249,0,0,1,10.142,5.369,28.584,28.584,0,0,1,7.178,8.24,27,27,0,0,1,3.43,10.478Zm89.6-24.945V0H593.387L563-44.073h-.485V0H544.057V-76.364h15.884l30.053,44h.634v-44ZM5.779,106V29.636H37.324a31.026,31.026,0,0,1,14.822,3.337,23.688,23.688,0,0,1,9.639,9.284,27.392,27.392,0,0,1,3.393,13.815,26.912,26.912,0,0,1-3.449,13.815A23.34,23.34,0,0,1,51.9,79.042a33.007,33.007,0,0,1-15.138,3.244H17.3V67.744H33.335a15.126,15.126,0,0,0,6.991-1.454A9.972,9.972,0,0,0,44.6,62.206a12.469,12.469,0,0,0,1.454-6.134A12.336,12.336,0,0,0,44.6,49.939a9.792,9.792,0,0,0-4.288-4.008,15.489,15.489,0,0,0-6.973-1.417h-9.1V106ZM140.539,67.818q0,12.6-4.847,21.365A33.054,33.054,0,0,1,122.585,102.5a37.726,37.726,0,0,1-18.513,4.549,37.452,37.452,0,0,1-18.532-4.586,33.25,33.25,0,0,1-13.069-13.33q-4.829-8.744-4.829-21.309,0-12.6,4.829-21.365A32.968,32.968,0,0,1,85.541,33.141a37.7,37.7,0,0,1,18.532-4.549,37.726,37.726,0,0,1,18.513,4.549,33.054,33.054,0,0,1,13.106,13.311Q140.539,55.215,140.539,67.818Zm-18.867,0a33.32,33.32,0,0,0-2.107-12.6,16.541,16.541,0,0,0-30.985,0,33.32,33.32,0,0,0-2.107,12.6,33.32,33.32,0,0,0,2.107,12.6,16.533,16.533,0,0,0,30.985,0A33.32,33.32,0,0,0,121.672,67.818ZM145.5,106V29.636h31.545a33.21,33.21,0,0,1,14.822,3.076,22.442,22.442,0,0,1,9.639,8.8A26.094,26.094,0,0,1,204.9,55.066a24.9,24.9,0,0,1-3.468,13.479,21.994,21.994,0,0,1-9.844,8.427,36.333,36.333,0,0,1-15.1,2.89H156.539V65.32h16.518a19.324,19.324,0,0,0,6.991-1.1,8.636,8.636,0,0,0,4.269-3.356,10.526,10.526,0,0,0,1.454-5.8,10.912,10.912,0,0,0-1.454-5.873,8.887,8.887,0,0,0-4.288-3.5,18.246,18.246,0,0,0-6.973-1.175h-9.1V106Zm42.992-34.9L207.511,106H187.376L168.732,71.1Zm18.238-26.474V29.636h64.544V44.626H248.121V106h-18.2V44.626ZM274.562,106V29.636h52.127V44.626h-33.67V60.286H323.37V75.313H293.019V106ZM402.236,67.818q0,12.6-4.847,21.365A33.054,33.054,0,0,1,384.283,102.5a39.839,39.839,0,0,1-37.045-.037,33.25,33.25,0,0,1-13.069-13.33q-4.829-8.744-4.829-21.309,0-12.6,4.829-21.365a32.968,32.968,0,0,1,13.069-13.311,39.983,39.983,0,0,1,37.045,0,33.054,33.054,0,0,1,13.106,13.311Q402.236,55.215,402.236,67.818Zm-18.867,0a33.32,33.32,0,0,0-2.107-12.6,16.541,16.541,0,0,0-30.985,0,33.32,33.32,0,0,0-2.107,12.6,33.32,33.32,0,0,0,2.107,12.6,16.533,16.533,0,0,0,30.985,0A33.32,33.32,0,0,0,383.369,67.818ZM407.2,106V29.636h18.457V91.011h31.768V106Zm72.453-76.364V106H461.2V29.636Zm77.86,38.182q0,12.6-4.847,21.365A33.054,33.054,0,0,1,539.559,102.5a39.839,39.839,0,0,1-37.045-.037,33.25,33.25,0,0,1-13.069-13.33q-4.829-8.744-4.829-21.309,0-12.6,4.829-21.365a32.968,32.968,0,0,1,13.069-13.311,39.983,39.983,0,0,1,37.045,0,33.054,33.054,0,0,1,13.106,13.311Q557.513,55.215,557.513,67.818Zm-18.867,0a33.32,33.32,0,0,0-2.107-12.6,16.541,16.541,0,0,0-30.985,0,33.32,33.32,0,0,0-2.107,12.6,33.32,33.32,0,0,0,2.107,12.6,16.533,16.533,0,0,0,30.985,0A33.32,33.32,0,0,0,538.646,67.818Zm29.312,39.263a9.407,9.407,0,0,1-6.879-2.834,9.186,9.186,0,0,1-2.815-6.861,9.04,9.04,0,0,1,2.815-6.768,9.631,9.631,0,0,1,13.61,0,9.183,9.183,0,0,1,2.964,6.768,9.355,9.355,0,0,1-1.4,4.885,10.386,10.386,0,0,1-3.542,3.5A9.092,9.092,0,0,1,567.958,107.081Z" transform="translate(-1.864 77.408)"/>
</svg>
