<svg xmlns="http://www.w3.org/2000/svg" width="33.74" height="33.74" viewBox="0 0 33.74 33.74">
  <path id="twitter-icon" d="M18.87,2A16.87,16.87,0,1,0,35.74,18.87,16.889,16.889,0,0,0,18.87,2Zm8.242,13.587c.007.173.012.349.012.526A11.556,11.556,0,0,1,9.335,25.846a8.213,8.213,0,0,0,6.015-1.682,4.071,4.071,0,0,1-3.8-2.822,4.055,4.055,0,0,0,1.835-.07,4.066,4.066,0,0,1-3.257-3.984v-.051a4.047,4.047,0,0,0,1.84.509,4.071,4.071,0,0,1-1.258-5.426,11.542,11.542,0,0,0,8.375,4.245,4.065,4.065,0,0,1,6.922-3.706,8.145,8.145,0,0,0,2.58-.985A4.075,4.075,0,0,1,26.8,14.123a8.171,8.171,0,0,0,2.335-.64A8.262,8.262,0,0,1,27.112,15.587Z" transform="translate(-2 -2)"/>
</svg>
